<?xml version="1.0" standalone="no"?>
<!DOCTYPE svg PUBLIC "-//W3C//DTD SVG 20010904//EN"
 "http://www.w3.org/TR/2001/REC-SVG-20010904/DTD/svg10.dtd">
<svg version="1.0" xmlns="http://www.w3.org/2000/svg"
 width="808.000000pt" height="808.000000pt" viewBox="0 0 808.000000 808.000000"
 preserveAspectRatio="xMidYMid meet">
<metadata>
Created by potrace 1.11, written by Peter Selinger 2001-2013
</metadata>
<g transform="translate(0.000000,808.000000) scale(0.100000,-0.100000)"
fill="#000000" stroke="none">
<path d="M2644 7620 c-40 -9 -87 -42 -113 -79 -20 -28 -282 -548 -401 -796
-34 -71 -74 -142 -88 -157 -35 -38 -76 -36 -193 6 -149 53 -469 161 -649 218
-143 45 -176 52 -250 52 -153 1 -195 -39 -194 -184 0 -74 7 -107 53 -250 61
-195 140 -429 210 -629 28 -79 50 -154 48 -166 -6 -45 -37 -74 -129 -119 -503
-241 -847 -417 -880 -450 -75 -73 -76 -185 -2 -262 27 -27 136 -85 442 -235
487 -239 522 -257 544 -276 36 -32 32 -64 -37 -265 -71 -204 -185 -552 -231
-703 -65 -211 -6 -329 165 -329 57 0 108 14 386 109 176 60 335 114 354 119
48 16 89 57 95 97 29 195 58 403 61 440 7 83 -11 125 -82 193 -69 65 -169 184
-211 251 -145 229 -232 588 -202 835 46 385 147 606 385 846 206 206 446 331
745 388 51 10 128 13 240 11 138 -2 182 -7 266 -28 160 -41 326 -114 429 -189
74 -53 139 -58 214 -15 63 35 187 96 242 118 143 57 355 105 512 116 131 9
150 30 223 243 22 66 29 103 29 166 0 73 -3 84 -28 117 -39 52 -79 70 -152 69
-50 -1 -136 -26 -510 -152 -580 -194 -541 -184 -585 -162 -40 19 -16 -24 -289
532 -102 206 -199 398 -217 426 -49 78 -121 112 -200 94z"/>
<path d="M2595 5824 c-251 -40 -466 -162 -620 -354 -220 -273 -238 -706 -42
-1016 29 -48 115 -134 133 -134 6 0 56 42 110 94 143 135 172 158 344 271 85
56 160 108 167 116 6 8 59 129 118 269 138 329 176 405 259 518 65 88 67 94
50 108 -37 28 -180 94 -239 109 -62 16 -227 27 -280 19z"/>
<path d="M4379 5826 c-2 -2 -33 -7 -69 -10 -92 -10 -250 -51 -350 -92 -233
-96 -436 -261 -584 -472 -117 -168 -198 -393 -221 -612 -12 -117 -16 -131 -53
-169 -27 -28 -56 -44 -107 -61 -442 -144 -745 -556 -754 -1025 -8 -458 264
-875 686 -1053 82 -35 251 -79 333 -86 30 -3 888 -6 1905 -7 1671 -2 1860 0
1955 15 110 17 221 49 317 91 298 132 535 428 614 766 31 133 35 350 9 475
-47 223 -149 408 -310 561 -140 132 -246 193 -481 278 -52 19 -109 67 -132
110 -8 17 -27 65 -41 108 -91 271 -282 488 -541 617 -270 133 -526 152 -814
60 -137 -43 -178 -27 -331 129 -251 257 -510 368 -881 377 -81 1 -148 1 -150
0z"/>
<path d="M5834 1774 c-54 -18 -84 -56 -203 -260 -57 -99 -114 -195 -126 -214
-32 -51 -277 -484 -313 -555 -36 -68 -41 -104 -23 -157 13 -39 69 -96 120
-122 54 -28 125 -31 175 -7 70 34 113 91 238 311 127 225 118 209 260 465 55
99 104 185 108 190 4 6 21 48 38 95 l32 85 -58 58 c-104 106 -173 137 -248
111z"/>
<path d="M4462 1759 c-60 -30 -92 -74 -234 -319 -401 -693 -422 -733 -411
-815 12 -85 103 -166 204 -180 45 -6 53 -4 114 37 53 34 75 57 110 113 46 75
315 544 315 550 0 2 15 30 34 62 37 65 92 166 143 263 30 56 34 72 30 118 -10
133 -185 231 -305 171z"/>
<path d="M3142 1755 c-23 -7 -53 -20 -65 -28 -32 -20 -286 -447 -531 -888 -72
-130 -86 -163 -86 -200 0 -60 38 -118 105 -158 102 -62 194 -50 277 36 31 32
139 213 295 493 192 345 251 456 275 520 l28 74 -28 30 c-118 127 -170 150
-270 121z"/>
<path d="M7208 1760 c-42 -8 -80 -31 -121 -74 -64 -69 -549 -912 -567 -985
-17 -72 -5 -125 38 -173 52 -58 105 -82 177 -82 119 0 156 38 325 339 29 51
83 148 235 420 148 265 166 303 179 363 7 27 2 39 -39 92 -65 85 -134 115
-227 100z"/>
</g>
</svg>
